<svg width="48" height="48" viewBox="0 0 24 24" xmlns="http://www.w3.org/2000/svg">
  <path fill="#181717" d="M12 .297c-6.63 0-12 5.373-12 12 0 5.302 3.438 9.8 8.205 11.387.6.113.82-.258.82-.577 0-.285-.01-1.04-.015-2.04-3.338.724-4.042-1.61-4.042-1.61-.546-1.387-1.333-1.756-1.333-1.756-1.09-.745.083-.729.083-.729 1.205.085 1.84 1.237 1.84 1.237 1.07 1.835 2.807 1.305 3.492.998.108-.775.418-1.305.762-1.605-2.665-.305-5.466-1.332-5.466-5.93 0-1.31.467-2.38 1.235-3.22-.135-.304-.54-1.528.105-3.176 0 0 1.005-.322 3.3 1.23a11.47 11.47 0 0 1 3-.404c1.02.005 2.045.137 3 .404 2.28-1.552 3.285-1.23 3.285-1.23.645 1.648.24 2.872.12 3.176.765.84 1.23 1.91 1.23 3.22 0 4.61-2.805 5.62-5.475 5.92.435.373.825 1.1.825 2.22 0 1.605-.015 2.896-.015 3.286 0 .322.21.693.825.577C20.565 22.092 24 17.592 24 12.297c0-6.627-5.373-12-12-12"/>
</svg>
